<svg width="142" height="41" viewBox="0 0 142 41" fill="none" xmlns="http://www.w3.org/2000/svg">
<path d="M8.856 34.104V8.664L10.344 7.224H7.32C5.368 7.224 4.264 7.752 4.008 8.808H2.952L0.216 4.872C0.6 4.264 1.096 3.72 1.704 3.24C2.312 2.76 2.904 2.52 3.48 2.52H16.152C18.104 2.52 19.208 1.992 19.464 0.935998H20.52L23.256 4.872C22.872 5.48 22.376 6.024 21.768 6.504C21.16 6.984 20.568 7.224 19.992 7.224H14.616V31.608C14.616 32.792 14.744 33.64 15 34.152C15.256 34.664 15.784 34.92 16.584 34.92V36.408L6.744 40.536L5.976 39C6.68 39 7.352 38.584 7.992 37.752C8.568 36.952 8.856 35.736 8.856 34.104ZM28.2113 34.104V6.552C28.2113 6.328 30.0353 5.544 33.6833 4.2C37.3313 2.824 39.4273 2.136 39.9713 2.136C40.5153 2.136 41.3313 2.792 42.4193 4.104C43.5393 5.416 44.0993 6.6 44.0993 7.656V20.232H46.4513V21.384L44.0993 22.584V31.896C44.0993 33.656 44.8673 34.696 46.4033 35.016V36.072L41.1713 39C40.4673 38.712 39.8113 38.248 39.2033 37.608C38.5953 36.936 38.2913 36.312 38.2913 35.736V22.584H33.9713V31.608C33.9713 32.792 34.0993 33.64 34.3553 34.152C34.6113 34.664 35.1393 34.92 35.9393 34.92V36.408L26.0993 40.536L25.3313 39C26.0353 39 26.7073 38.584 27.3473 37.752C27.9233 36.952 28.2113 35.736 28.2113 34.104ZM35.8433 6.6C35.2033 6.6 34.5793 6.84 33.9713 7.32V21.48L36.8033 20.232H38.2913V10.152C38.2913 7.784 37.4753 6.6 35.8433 6.6ZM57.6191 34.104V8.664L59.1071 7.224H56.0831C54.1311 7.224 53.0271 7.752 52.7711 8.808H51.7151L48.9791 4.872C49.3631 4.264 49.8591 3.72 50.4671 3.24C51.0751 2.76 51.6671 2.52 52.2431 2.52H64.9151C66.8671 2.52 67.9711 1.992 68.2271 0.935998H69.2831L72.0191 4.872C71.6351 5.48 71.1391 6.024 70.5311 6.504C69.9231 6.984 69.3311 7.224 68.7551 7.224H63.3791V31.608C63.3791 32.792 63.5071 33.64 63.7631 34.152C64.0191 34.664 64.5471 34.92 65.3471 34.92V36.408L55.5071 40.536L54.7391 39C55.4431 39 56.1151 38.584 56.7551 37.752C57.3311 36.952 57.6191 35.736 57.6191 34.104ZM80.4304 34.104V8.664L81.9184 7.224H78.8944C76.9424 7.224 75.8384 7.752 75.5824 8.808H74.5264L71.7904 4.872C72.1744 4.264 72.6704 3.72 73.2784 3.24C73.8864 2.76 74.4784 2.52 75.0544 2.52H87.7264C89.6784 2.52 90.7824 1.992 91.0384 0.935998H92.0944L94.8304 4.872C94.4464 5.48 93.9504 6.024 93.3424 6.504C92.7344 6.984 92.1424 7.224 91.5664 7.224H86.1904V31.608C86.1904 32.792 86.3184 33.64 86.5744 34.152C86.8304 34.664 87.3584 34.92 88.1584 34.92V36.408L78.3184 40.536L77.5504 39C78.2544 39 78.9264 38.584 79.5664 37.752C80.1424 36.952 80.4304 35.736 80.4304 34.104ZM99.7856 31.992V6.456C99.7856 6.232 101.61 5.448 105.258 4.104C108.906 2.728 111.002 2.04 111.546 2.04C112.09 2.04 112.906 2.696 113.994 4.008C115.114 5.32 115.674 6.504 115.674 7.56V34.536C115.674 34.792 113.914 35.608 110.394 36.984C106.906 38.328 104.762 39 103.962 39C103.194 39 102.298 38.312 101.274 36.936C100.282 35.56 99.7856 33.912 99.7856 31.992ZM107.994 34.584C108.602 34.584 109.226 34.328 109.866 33.816V10.056C109.866 7.688 109.05 6.504 107.418 6.504C106.778 6.504 106.154 6.744 105.546 7.224V31.032C105.546 33.4 106.362 34.584 107.994 34.584ZM125.738 31.992V6.456C125.738 6.232 127.562 5.448 131.21 4.104C134.858 2.728 136.954 2.04 137.498 2.04C138.042 2.04 138.858 2.696 139.946 4.008C141.066 5.32 141.626 6.504 141.626 7.56V34.536C141.626 34.792 139.866 35.608 136.346 36.984C132.858 38.328 130.714 39 129.914 39C129.146 39 128.25 38.312 127.226 36.936C126.234 35.56 125.738 33.912 125.738 31.992ZM133.946 34.584C134.554 34.584 135.178 34.328 135.818 33.816V10.056C135.818 7.688 135.002 6.504 133.37 6.504C132.73 6.504 132.106 6.744 131.498 7.224V31.032C131.498 33.4 132.314 34.584 133.946 34.584Z" fill="#FFAF38"/>
</svg>
