<svg width="110" height="24" viewBox="0 0 110 24" fill="none" xmlns="http://www.w3.org/2000/svg">
<path d="M17.248 0.823999L16.736 4.856H11.264V23H6.016V4.856H0.288V0.823999H17.248ZM29.4475 23L28.2955 18.232H21.8315L20.7115 23H15.2715L21.9595 0.823999H28.3275L35.0155 23H29.4475ZM22.7275 14.424H27.3995L25.0635 4.632L22.7275 14.424ZM50.2168 0.823999L49.7048 4.856H44.2328V23H38.9848V4.856H33.2568V0.823999H50.2168ZM67.498 0.823999L66.986 4.856H61.514V23H56.266V4.856H50.538V0.823999H67.498ZM77.4463 0.279999C80.6036 0.279999 83.0569 1.29333 84.8063 3.32C86.5769 5.34667 87.4623 8.20533 87.4623 11.896C87.4623 14.3067 87.0569 16.3867 86.2463 18.136C85.4569 19.8853 84.3049 21.2293 82.7903 22.168C81.2969 23.0853 79.5156 23.544 77.4463 23.544C75.3769 23.544 73.5956 23.0853 72.1023 22.168C70.6089 21.2507 69.4569 19.928 68.6463 18.2C67.8569 16.4507 67.4622 14.3493 67.4622 11.896C67.4622 9.50667 67.8569 7.43733 68.6463 5.688C69.4569 3.93867 70.6089 2.60533 72.1023 1.688C73.5956 0.749332 75.3769 0.279999 77.4463 0.279999ZM77.4463 4.12C75.9316 4.12 74.8009 4.73867 74.0543 5.976C73.3289 7.192 72.9663 9.16533 72.9663 11.896C72.9663 14.6267 73.3396 16.6107 74.0863 17.848C74.8329 19.0853 75.9529 19.704 77.4463 19.704C78.9823 19.704 80.1129 19.096 80.8383 17.88C81.5849 16.6427 81.9583 14.648 81.9583 11.896C81.9583 9.144 81.5849 7.16 80.8383 5.944C80.0916 4.728 78.9609 4.12 77.4463 4.12ZM99.5713 0.279999C102.729 0.279999 105.182 1.29333 106.931 3.32C108.702 5.34667 109.587 8.20533 109.587 11.896C109.587 14.3067 109.182 16.3867 108.371 18.136C107.582 19.8853 106.43 21.2293 104.915 22.168C103.422 23.0853 101.641 23.544 99.5713 23.544C97.5019 23.544 95.7206 23.0853 94.2273 22.168C92.7339 21.2507 91.5819 19.928 90.7713 18.2C89.9819 16.4507 89.5872 14.3493 89.5872 11.896C89.5872 9.50667 89.9819 7.43733 90.7713 5.688C91.5819 3.93867 92.7339 2.60533 94.2273 1.688C95.7206 0.749332 97.5019 0.279999 99.5713 0.279999ZM99.5713 4.12C98.0566 4.12 96.9259 4.73867 96.1793 5.976C95.4539 7.192 95.0913 9.16533 95.0913 11.896C95.0913 14.6267 95.4646 16.6107 96.2113 17.848C96.9579 19.0853 98.0779 19.704 99.5713 19.704C101.107 19.704 102.238 19.096 102.963 17.88C103.71 16.6427 104.083 14.648 104.083 11.896C104.083 9.144 103.71 7.16 102.963 5.944C102.217 4.728 101.086 4.12 99.5713 4.12Z" fill="#FFAF38"/>
</svg>
